<svg width="24" height="25" viewBox="0 0 24 25" fill="none" xmlns="http://www.w3.org/2000/svg">
<g id="Frame">
<path id="Vector" d="M10.533 1.77895C5.35298 1.77895 1.12598 5.91895 1.12598 11.058C1.12598 16.197 5.35198 20.337 10.533 20.337C12.767 20.337 14.823 19.567 16.44 18.279L20.793 22.632C20.8852 22.7275 20.9956 22.8036 21.1176 22.8561C21.2396 22.9085 21.3708 22.9361 21.5036 22.9372C21.6364 22.9384 21.768 22.9131 21.8909 22.8628C22.0138 22.8125 22.1255 22.7382 22.2194 22.6444C22.3133 22.5505 22.3875 22.4388 22.4378 22.3159C22.4881 22.193 22.5134 22.0613 22.5122 21.9286C22.5111 21.7958 22.4835 21.6646 22.4311 21.5425C22.3787 21.4205 22.3025 21.3102 22.207 21.218L17.863 16.874C19.2079 15.2343 19.942 13.1786 19.94 11.058C19.94 5.91795 15.714 1.77795 10.533 1.77795V1.77895ZM3.12598 11.058C3.12598 7.05195 6.42798 3.77795 10.533 3.77795C14.638 3.77795 17.94 7.05195 17.94 11.058C17.94 15.064 14.638 18.337 10.533 18.337C6.42798 18.337 3.12598 15.065 3.12598 11.058Z" fill="#121212"/>
</g>
</svg>
